<svg id="FilledOutline" height="512" viewBox="0 0 512 512" width="512" xmlns="http://www.w3.org/2000/svg"><path d="m376 192h96v296h-96z" fill="#f0a91e"/><path d="m400 80h48v112h-48z" fill="#f0a91e" transform="matrix(-1 0 0 -1 848 272)"/><path d="m424 80h24a0 0 0 0 1 0 0v40a0 0 0 0 1 0 0h-48a0 0 0 0 1 0 0v-16a24 24 0 0 1 24-24z" fill="#d18d29" transform="matrix(-1 0 0 -1 848 200)"/><path d="m192 80h48v176h-48z" fill="#f0a91e"/><path d="m376 408h96a16 16 0 0 1 16 16 16 16 0 0 1 -16 16h-96z" fill="#fdbe10"/><circle cx="424" cy="192" fill="#fdbe10" r="24"/><path d="m192 80h48a0 0 0 0 1 0 0v40a0 0 0 0 1 0 0h-24a24 24 0 0 1 -24-24v-16a0 0 0 0 1 0 0z" fill="#d18d29"/><path d="m216 56h208v48h-208z" fill="#f0a91e"/><circle cx="216" cy="80" fill="#fdbe10" r="24"/><circle cx="424" cy="80" fill="#fdbe10" r="24"/><path d="m376 440h96v16h-96z" fill="#d18d29"/><path d="m48 296h352v192h-352z" fill="#e6e6e6"/><path d="m24 280h400v32h-400z" fill="#0093ba"/><path d="m88 440h48v48h-48z" fill="#0093ba"/><path d="m48 312h352v16h-352z" fill="#abbac2"/><rect fill="#fdbe10" height="32" rx="16" width="80" x="176" y="240"/><path d="m240 272 64 56v56l-8 16h-24v-56l-32-32h-48l-32 32v56h-24l-8-16v-56l64-56z" fill="#fdbe10"/><path d="m192 272h48v40h-48z" fill="#f0a91e"/><path d="m496 424a24.039 24.039 0 0 0 -16-22.624v-209.376a8 8 0 0 0 -8-8h-16v-104a32.036 32.036 0 0 0 -32-32h-208a32.036 32.036 0 0 0 -32 32v153.376a23.982 23.982 0 0 0 -7.132 41.235l-54.136 47.368a8 8 0 0 0 -2.732 6.021v56a7.994 7.994 0 0 0 .845 3.578l8 16a8 8 0 0 0 7.155 4.422h24a8 8 0 0 0 8-8h16v-16h-16v-16h16v-16h-16v-4.687l27.314-27.313h41.372l27.314 27.313v4.687h-16v16h16v16h-16v16h16a8 8 0 0 0 8 8h24a8 8 0 0 0 7.155-4.422l8-16a7.994 7.994 0 0 0 .845-3.578v-56a8 8 0 0 0 -2.732-6.021l-54.136-47.368a23.982 23.982 0 0 0 -7.132-41.235v-121.376h144v72h-16a8 8 0 0 0 -8 8v64h16v-56h9.013a32 32 0 0 0 61.974 0h9.013v200h-56v-80h16a8 8 0 0 0 8-8v-32a8 8 0 0 0 -8-8h-136v16h128v16h-96v16h72v160h-248v-40a8 8 0 0 0 -8-8h-48a8 8 0 0 0 -8 8v40h-24v-160h56v-16h-80v-16h112v-16h-120a8 8 0 0 0 -8 8v32a8 8 0 0 0 8 8h16v168a8 8 0 0 0 8 8h424a8 8 0 0 0 8-8v-41.376a24.039 24.039 0 0 0 16-22.624zm-56-344a16 16 0 1 1 -16-16 16.019 16.019 0 0 1 16 16zm-224-16a16 16 0 1 1 -16 16 16.019 16.019 0 0 1 16-16zm-16 168v-124.3a31.885 31.885 0 0 0 32 0v124.3zm-8 16h48a8 8 0 0 1 0 16h-48a8 8 0 0 1 0-16zm-37.657 90.343a8 8 0 0 0 -2.343 5.657v48h-11.056l-4.944-9.889v-50.481l48-42v19.056zm77.657-34.343h-32v-24h32zm64 78.111-4.944 9.889h-11.056v-48a8 8 0 0 0 -2.343-5.657l-29.657-29.657v-19.056l48 42zm-48-302.111a31.793 31.793 0 0 0 -4.3-16h152.61a31.885 31.885 0 0 0 0 32h-148.31zm176 32a31.8 31.8 0 0 0 16-4.305v56.61a31.885 31.885 0 0 0 -32 0v-52.305zm0 96a16 16 0 1 1 16-16 16.019 16.019 0 0 1 -16 16zm-328 240h32v32h-32zm312 32v-32h56v32zm64-48h-64v-16h64a8 8 0 0 1 0 16z"/><path d="m240 16h152v16h-152z"/><path d="m408 16h16v16h-16z"/><path d="m160 432h16v16h-16z"/><path d="m200 432h16v16h-16z"/><path d="m240 432h16v16h-16z"/><path d="m280 432h16v16h-16z"/><path d="m320 432h16v16h-16z"/><path d="m360 432h16v16h-16z"/></svg>